# xmcd
#
# Track frame offsets: 
#        182
#        10542
#        20762
#        31800
#        43052
#        54670
#        63910
#        75405
#        84915
#        97805
#        108282
#        117790
#        128995
#        137952
#        148587
#        161222
#
# Disc length: 2348 seconds
#
# Revision: 0
# Processed by: cddbd v1.5.2PL0 Copyright (c) Steve Scherf et al.
# Submitted via: ExactAudioCopy v0.95b4
#
DISCID=c8092a10
DTITLE=Various Artist - Crazy cocktail party
DYEAR=1900
DGENRE=Acid Jazz
TTITLE0=Kazoo - Reg owen and his orchestra
TTITLE1=Pink suite - Reg owen and his orchestra
TTITLE2=Maria magdalena - Los mayas
TTITLE3=Saint averty's blues - Jean claude Pelletier et son orchestre
TTITLE4=Tender passion - Willy Albimoor and his orchestra
TTITLE5=Are you afraid - The golden dream orchestra
TTITLE6=Sugar moon - The waikikis
TTITLE7=Bing bang conga - Los albinos
TTITLE8=Allahabad - Jack Say and his orchestra
TTITLE9=Argentine serenade - Peter kreuder and his copacabanas
TTITLE10=Manhatten mambo - Nico Gomez and his orchestra
TTITLE11=Panama patrol - The mertens brothers
TTITLE12=Harlem nocturne - Ruben Calzado and his latin orchestra
TTITLE13=Ballet mambo - David Bee and his orchestra
TTITLE14=Lonesome heart - Teddy Mertens, his trumpet and his orchestra
TTITLE15=Jack the ripper - Reg owen and his orchestra
EXTD=
EXTT0=
EXTT1=
EXTT2=
EXTT3=
EXTT4=
EXTT5=
EXTT6=
EXTT7=
EXTT8=
EXTT9=
EXTT10=
EXTT11=
EXTT12=
EXTT13=
EXTT14=
EXTT15=
PLAYORDER=
